<?xml version="1.0" encoding="utf-8"?>
<!-- Generator: Adobe Illustrator 18.0.0, SVG Export Plug-In . SVG Version: 6.00 Build 0)  -->
<!DOCTYPE svg PUBLIC "-//W3C//DTD SVG 1.1//EN" "http://www.w3.org/Graphics/SVG/1.1/DTD/svg11.dtd">
<svg version="1.1" id="Layer_1" xmlns="http://www.w3.org/2000/svg" xmlns:xlink="http://www.w3.org/1999/xlink" x="0px" y="0px"
	 viewBox="0 0 612 792" enable-background="new 0 0 612 792" xml:space="preserve">
<path fill="#F0EAD9" d="M396,396c0,49.7-40.3,90-90,90s-90-40.3-90-90c0-49.7,40.3-90,90-90S396,346.3,396,396"/>
<path fill="#30232F" d="M265.1,330.5c0,13.6-11,24.5-24.5,24.5c-13.6,0-24.5-11-24.5-24.5c0-13.6,11-24.5,24.5-24.5
	C254.1,306,265.1,317,265.1,330.5"/>
<path fill="#FFFFFF" d="M237.8,332.3c-0.3,0-0.4-0.1-0.4-0.3c0-0.5,0.2-0.8,0.5-1.2c0.1-0.1,0.3-0.2,0.6-0.3
	c0.3-0.1,0.7-0.3,1.2-0.6c0.5-0.3,0.9-0.6,1.3-1c0.9-0.9,1.3-2,1.3-3.1c0-0.5-0.1-0.9-0.4-1.2c-0.3-0.3-0.6-0.4-1-0.4
	c-0.4,0-0.7,0.1-1.1,0.2c-0.3,0.2-0.6,0.4-0.8,0.6c-0.5,0.5-0.8,1.1-0.8,1.7c0,0.5,0.2,0.9,0.5,1c0.1,0.1,0.2,0.1,0.2,0.3
	c0,0.2-0.1,0.4-0.3,0.6c-0.4,0.4-0.8,0.5-1.1,0.5s-0.5,0-0.7-0.1c-0.2-0.1-0.3-0.2-0.5-0.4c-0.3-0.3-0.4-0.7-0.4-1.2
	s0.1-0.8,0.2-1.2c0.1-0.3,0.3-0.7,0.5-1c0.2-0.3,0.5-0.6,0.8-0.9c0.3-0.3,0.6-0.6,1-0.8c0.8-0.5,1.6-0.7,2.3-0.7
	c0.8,0,1.4,0.1,1.8,0.3c0.4,0.2,0.8,0.4,1,0.8c0.5,0.6,0.7,1.3,0.7,2.3c0,1.5-0.7,3-2.1,4.3c-0.5,0.5-1,0.9-1.5,1.1
	c0.6,0.2,0.9,0.6,1.2,1.4c0.1,0.2,0.1,0.5,0.1,0.8c0,0.3-0.1,0.6-0.2,1c-0.1,0.4-0.3,0.7-0.5,1c-0.2,0.3-0.4,0.6-0.7,0.9
	c-0.3,0.3-0.6,0.5-1,0.7c-0.8,0.5-1.6,0.7-2.6,0.7c-0.9,0-1.7-0.2-2.2-0.7c-0.5-0.4-0.7-0.9-0.7-1.5c0-0.5,0.2-0.9,0.4-1.3
	c0.4-0.5,0.8-0.7,1.4-0.7c0.3,0,0.5,0.1,0.7,0.2c0.2,0.2,0.3,0.4,0.2,0.6c-0.1,0.1-0.2,0.3-0.3,0.4c-0.1,0.1-0.2,0.2-0.2,0.3
	c-0.1,0.2-0.2,0.4-0.2,0.6c0,0.2,0,0.3,0,0.4c0,0.1,0.1,0.2,0.2,0.3c0.2,0.2,0.4,0.3,0.8,0.3c0.4,0,0.7-0.1,1-0.3
	c0.3-0.2,0.6-0.5,0.9-0.8c0.5-0.7,0.8-1.5,0.8-2.4c0-0.8-0.4-1.3-1.1-1.3L237.8,332.3z"/>
<path fill="#FFFFFF" d="M244.9,337.8c-0.1-0.1-0.3-0.3-0.3-0.5c-0.1-0.2-0.1-0.4-0.1-0.6c0-0.2,0-0.5,0.1-0.7
	c0.1-0.2,0.2-0.3,0.4-0.5c0.3-0.2,0.5-0.3,0.8-0.3s0.5,0,0.7,0.1c0.2,0,0.4,0.1,0.6,0.2c0.4,0.2,0.6,0.5,0.6,0.9
	c0,0.5-0.2,0.9-0.5,1.3c-0.3,0.3-0.6,0.5-0.9,0.6c-0.3,0-0.6,0-0.8-0.1C245.2,338,245.1,337.9,244.9,337.8"/>
<path fill="#F16259" d="M334,447.1h-56c-6.1,0-11.1-5-11.1-11.1v-50c0-0.6,0.5-1.1,1.1-1.1s1.1,0.5,1.1,1.1v50c0,4.9,4,8.9,8.9,8.9
	h56c4.9,0,8.9-4,8.9-8.9v-50c0-0.6,0.5-1.1,1.1-1.1c0.6,0,1.1,0.5,1.1,1.1v50C345.1,442.1,340.1,447.1,334,447.1"/>
<path fill="#F16259" d="M356,387.1H256c-0.6,0-1.1-0.5-1.1-1.1c0-0.6,0.5-1.1,1.1-1.1h100c0.6,0,1.1,0.5,1.1,1.1
	C357.1,386.6,356.6,387.1,356,387.1"/>
<path fill="#53C0A7" d="M276.5,377.1c-0.6,0-1.1-0.5-1.1-1.1c0-2.1,1-3.2,1.8-4.1c0.7-0.8,1.2-1.3,1.2-2.6c0-1.2-0.5-1.8-1.2-2.6
	c-0.8-0.9-1.8-2-1.8-4.1c0-2.1,1-3.2,1.8-4.1c0.7-0.8,1.2-1.3,1.2-2.6c0-0.6,0.5-1.1,1.1-1.1c0.6,0,1.1,0.5,1.1,1.1
	c0,2.1-1,3.2-1.8,4.1c-0.7,0.8-1.2,1.3-1.2,2.6c0,1.2,0.5,1.8,1.2,2.6c0.8,0.9,1.8,2,1.8,4.1c0,2.1-1,3.2-1.8,4.1
	c-0.7,0.8-1.2,1.3-1.2,2.6C277.6,376.6,277.1,377.1,276.5,377.1"/>
<path fill="#53C0A7" d="M294,377.1c-0.6,0-1.1-0.5-1.1-1.1c0-2.9,1.2-4.4,2.2-5.7c0.9-1.2,1.8-2.2,1.8-4.3s-0.8-3.1-1.8-4.3
	c-1.1-1.3-2.2-2.8-2.2-5.7c0-2.9,1.2-4.4,2.2-5.7c0.9-1.2,1.8-2.2,1.8-4.3c0-0.6,0.5-1.1,1.1-1.1c0.6,0,1.1,0.5,1.1,1.1
	c0,2.9-1.2,4.4-2.2,5.7c-0.9,1.2-1.8,2.2-1.8,4.3c0,2.1,0.8,3.1,1.8,4.3c1.1,1.3,2.2,2.8,2.2,5.7s-1.2,4.4-2.2,5.7
	c-0.9,1.2-1.8,2.2-1.8,4.3C295.1,376.6,294.6,377.1,294,377.1"/>
<path fill="#53C0A7" d="M314,377.1c-0.6,0-1.1-0.5-1.1-1.1c0-2.9,1.2-4.4,2.2-5.7c0.9-1.2,1.8-2.2,1.8-4.3s-0.8-3.1-1.8-4.3
	c-1.1-1.3-2.2-2.8-2.2-5.7c0-2.9,1.2-4.4,2.2-5.7c0.9-1.2,1.8-2.2,1.8-4.3c0-0.6,0.5-1.1,1.1-1.1c0.6,0,1.1,0.5,1.1,1.1
	c0,2.9-1.2,4.4-2.2,5.7c-0.9,1.2-1.8,2.2-1.8,4.3c0,2.1,0.8,3.1,1.8,4.3c1.1,1.3,2.2,2.8,2.2,5.7s-1.2,4.4-2.2,5.7
	c-0.9,1.2-1.8,2.2-1.8,4.3C315.1,376.6,314.6,377.1,314,377.1"/>
<path fill="#53C0A7" d="M332.5,377.1c-0.6,0-1.1-0.5-1.1-1.1c0-2.1,1-3.2,1.8-4.1c0.7-0.8,1.2-1.3,1.2-2.6c0-1.2-0.5-1.8-1.2-2.6
	c-0.8-0.9-1.8-2-1.8-4.1c0-2.1,1-3.2,1.8-4.1c0.7-0.8,1.2-1.3,1.2-2.6c0-0.6,0.5-1.1,1.1-1.1c0.6,0,1.1,0.5,1.1,1.1
	c0,2.1-1,3.2-1.8,4.1c-0.7,0.8-1.2,1.3-1.2,2.6c0,1.2,0.5,1.8,1.2,2.6c0.8,0.9,1.8,2,1.8,4.1c0,2.1-1,3.2-1.8,4.1
	c-0.7,0.8-1.2,1.3-1.2,2.6C333.6,376.6,333.1,377.1,332.5,377.1"/>
<line fill="none" stroke="#F16259" stroke-width="2.25" stroke-linecap="round" stroke-linejoin="round" stroke-miterlimit="10" x1="278" y1="434" x2="278" y2="396"/>
</svg>
